<?xml version="1.0" encoding="utf-8"?>
<!-- Generator: Adobe Illustrator 25.0.0, SVG Export Plug-In . SVG Version: 6.00 Build 0)  -->
<svg version="1.1" id="Layer_1" xmlns="http://www.w3.org/2000/svg" xmlns:xlink="http://www.w3.org/1999/xlink" x="0px" y="0px"
	 viewBox="0 0 391.71 127.08" style="enable-background:new 0 0 391.71 127.08;" xml:space="preserve">
<style type="text/css">
	.st0{fill:#006BB3;}
	.st1{fill:#01D1FF;}
	.st2{fill:none;}
</style>
<g>
	<path class="st0" d="M11.34,108.38V15.21L68.27,70c1.55,1.55,3.12,3.2,4.71,4.96c1.59,1.75,3.26,3.73,5.02,5.94V18.76h13.47v93.11
		L33.38,56.1c-1.55-1.51-3.05-3.1-4.5-4.77c-1.45-1.67-2.83-3.43-4.13-5.26v62.32H11.34z"/>
	<path class="st1" d="M98.77,25.25c0-2.24,0.83-4.18,2.48-5.82c1.65-1.63,3.62-2.45,5.91-2.45c2.37,0,4.34,0.79,5.91,2.36
		c1.57,1.57,2.36,3.54,2.36,5.91c0,2.37-0.8,4.36-2.39,5.97c-1.59,1.61-3.55,2.42-5.88,2.42c-2.29,0-4.25-0.83-5.91-2.48
		S98.77,27.54,98.77,25.25z"/>
	<rect x="100.55" y="50.35" class="st0" width="13.28" height="58.03"/>
	<path class="st0" d="M165.41,79.59v-1.02c0-7.63-0.93-12.7-2.78-15.21c-1.86-2.51-5.16-3.77-9.89-3.77c-3.1,0-5.87,0.57-8.3,1.71
		c-2.42,1.15-4.33,2.76-5.72,4.84c-0.98,1.39-1.66,3.17-2.05,5.36c-0.39,2.18-0.58,5.66-0.58,10.43v26.45H122.8V50.35h12.49v9.49
		c2.65-4,5.78-6.92,9.37-8.76c3.59-1.83,7.96-2.75,13.1-2.75c4.32,0,8.01,0.68,11.05,2.05c3.04,1.37,7.78,6.35,7.55,6.79
		L165.41,79.59z"/>
	<path class="st1" d="M196.72,65.22c-3.26,3.51-4.89,8.16-4.89,13.96c0,6.04,1.64,10.78,4.93,14.23c3.28,3.45,7.82,5.17,13.62,5.17
		c3.22,0,6.1-0.6,8.63-1.8c2.53-1.2,4.75-3.03,6.67-5.48v15.3c-2.45,1.39-5.07,2.43-7.87,3.13c-2.79,0.69-5.76,1.04-8.9,1.04
		c-9.11,0-16.52-2.9-22.26-8.7c-4.02-4.07-6.64-8.98-7.83-14.74v21.05h-13.41v-0.06c0-5.74,1.31-11.41,3.83-16.57l9.48-19.42
		c1.16-6.09,3.91-11.23,8.24-15.4c5.94-5.74,13.7-8.6,23.29-8.6c3.02,0,5.8,0.29,8.33,0.88c2.53,0.6,4.89,1.5,7.1,2.73v14.94
		c-2.04-2.25-4.42-3.96-7.13-5.15c-2.72-1.18-5.64-1.77-8.79-1.77C204.34,59.96,199.99,61.71,196.72,65.22z"/>
	<path class="st1" d="M286.87,108.38h-13.28v-7.53c-2.37,3.35-5.13,5.84-8.29,7.47c-3.16,1.63-6.79,2.45-10.87,2.45
		c-8.2,0-14.66-2.81-19.37-8.42c-4.71-5.61-7.07-13.29-7.07-23.05c0-9.26,2.41-16.74,7.22-22.44c4.82-5.69,11.1-8.54,18.85-8.54
		c4.73,0,8.78,0.99,12.15,2.97c3.37,1.98,5.83,4.83,7.38,8.54v-9.49h13.28V108.38z M273.96,79.18c0-6-1.4-10.67-4.19-14.02
		c-2.8-3.35-6.7-5.02-11.72-5.02c-5.02,0-8.97,1.72-11.85,5.17c-2.88,3.45-4.32,8.23-4.32,14.35c0,6.16,1.39,10.92,4.16,14.26
		c2.77,3.35,6.69,5.02,11.75,5.02c4.77,0,8.66-1.82,11.66-5.45C272.46,89.87,273.96,85.1,273.96,79.18z"/>
	<path class="st1" d="M313.52,59.59c1.43-3.84,3.32-6.67,5.66-8.51s5.25-2.75,8.72-2.75c1.88,0,3.72,0.22,5.54,0.67
		c1.82,0.45,3.6,1.1,5.36,1.96l-4.78,11.26c-1.14-0.82-2.38-1.42-3.7-1.81c-1.33-0.39-2.81-0.58-4.44-0.58
		c-4.41,0-7.57,1.77-9.49,5.29c-1.92,3.53-2.88,9.46-2.88,17.78v25.47h-13.28V50.23h13.28V59.59z"/>
	<path class="st1" d="M333.72,97.85l11.02-6c0.82,2.9,2.33,5.1,4.53,6.61c2.2,1.51,5.04,2.27,8.51,2.27c2.98,0,5.32-0.68,7.01-2.05
		c1.69-1.37,2.54-3.23,2.54-5.6c0-3.14-3.02-5.84-9.06-8.08c-2.04-0.73-3.61-1.35-4.71-1.84c-6.2-2.57-10.54-5.18-13.01-7.84
		c-2.47-2.65-3.7-5.88-3.7-9.67c0-5.18,2.03-9.39,6.09-12.61c4.06-3.22,9.44-4.84,16.13-4.84c4.49,0,8.33,0.83,11.54,2.48
		c3.2,1.65,5.54,4.01,7.01,7.07l-9.43,6.49c-0.69-1.84-1.91-3.29-3.64-4.38c-1.74-1.08-3.75-1.62-6.03-1.62
		c-2.53,0-4.56,0.6-6.09,1.81c-1.53,1.2-2.3,2.81-2.3,4.81c0,3.02,3.43,5.78,10.28,8.26c2.16,0.78,3.84,1.41,5.02,1.9
		c5.35,2.12,9.17,4.52,11.48,7.19c2.3,2.67,3.46,6.01,3.46,10.01c0,5.8-2.1,10.34-6.3,13.62c-4.2,3.28-10,4.93-17.38,4.93
		c-5.67,0-10.39-1.06-14.14-3.18C338.78,105.46,335.84,102.22,333.72,97.85z"/>
	<line class="st2" x1="178.81" y1="72.14" x2="165.41" y2="99.59"/>
	<line class="st2" x1="176.36" y1="57.17" x2="165.41" y2="79.59"/>
</g>
</svg>
